{"glyphs":{":":{"x_min":0,"x_max":188,"ha":188,"o":"m 145 186 l 98 139 l 54 187 l 100 236 z m 144 19 l 98 -28 l 54 24 l 100 72 z"},"$":{"x_min":0,"x_max":365,"ha":365,"o":"m 185 268 q 269 230 295 203 q 322 176 322 135 q 322 83 286 42 q 250 1 185 -10 l 185 -76 l 161 -76 l 161 -10 q 97 -5 63 23 q 30 52 30 93 q 30 144 92 154 l 97 145 q 70 129 70 99 q 70 68 96 45 q 123 21 161 18 l 161 217 q 94 246 67 274 q 41 302 41 343 q 41 389 73 423 q 104 457 161 465 l 161 514 l 185 514 l 185 466 q 240 464 270 443 q 300 422 300 391 q 300 367 281 351 q 262 335 234 335 l 229 335 l 227 346 q 256 359 256 387 q 256 409 237 427 q 218 444 185 447 z m 161 279 l 161 445 q 123 438 102 416 q 81 394 81 366 q 81 317 161 279 z m 185 16 q 231 22 257 50 q 282 77 282 110 q 282 169 185 206 z"},"?":{"x_min":0,"x_max":427,"ha":427,"o":"m 242 466 l 243 453 q 243 425 225 408 q 208 390 180 390 q 152 390 135 410 q 117 430 117 459 q 117 509 157 544 q 196 579 261 579 q 321 579 360 547 q 398 515 398 468 q 398 435 381 401 q 364 367 304 318 q 244 270 230 245 q 216 220 216 196 q 216 177 226 164 q 237 150 251 150 q 265 150 281 169 l 291 163 q 286 141 271 127 q 255 114 237 114 q 213 114 200 131 q 186 148 186 178 q 186 206 200 236 q 215 265 262 312 q 309 360 324 385 q 340 410 340 446 q 340 493 310 522 q 280 552 235 552 q 198 552 172 531 q 147 511 147 480 q 147 458 159 445 q 171 431 191 431 q 221 431 235 465 z m 274 23 l 233 -26 l 192 26 l 232 76 z"},"<":{"x_min":0,"x_max":615,"ha":615,"o":"m 549 9 l 65 215 l 65 244 l 549 449 l 549 413 l 107 230 l 549 45 z"},"'":{"x_min":0,"x_max":135,"ha":135,"o":"m 59 437 l 41 585 q 37 619 37 633 q 37 652 46 664 q 54 677 68 677 q 98 677 98 633 q 98 612 94 583 l 74 437 z"},"=":{"x_min":0,"x_max":615,"ha":615,"o":"m 549 321 l 65 321 l 65 354 l 549 354 z m 549 111 l 65 111 l 65 144 l 549 144 z"},"a":{"x_min":0,"x_max":344,"ha":344,"o":"m 364 77 q 308 -10 255 -10 q 235 -10 226 1 q 217 12 217 46 q 188 10 167 -1 q 147 -12 121 -12 q 83 -12 61 14 q 39 40 39 83 l 39 104 q 34 97 14 69 l -2 80 q 41 146 89 184 q 136 222 172 222 q 197 222 222 207 l 265 229 l 265 63 q 265 37 268 31 q 270 26 281 26 q 290 26 309 42 q 327 59 349 90 z m 216 83 l 216 181 q 196 201 169 201 q 140 201 116 174 q 93 146 93 106 q 93 71 109 52 q 126 32 155 32 q 177 32 197 54 q 216 77 216 83 z"},"L":{"x_min":0,"x_max":573,"ha":573,"o":"m 305 74 q 345 115 345 152 q 345 180 326 220 q 308 261 268 308 q 228 356 215 389 q 201 423 201 456 q 201 532 268 593 q 334 654 435 654 q 516 654 566 613 q 615 572 615 507 q 615 445 571 400 q 527 354 469 354 q 423 354 396 379 q 369 404 369 444 q 369 504 432 535 l 439 525 q 406 498 406 461 q 406 429 430 405 q 455 381 489 381 q 525 381 550 409 q 575 438 575 480 q 575 540 525 583 q 475 627 403 627 q 337 627 294 588 q 252 549 252 497 q 252 435 316 360 q 389 275 389 194 q 389 128 331 65 q 423 26 475 26 q 534 26 586 101 l 601 89 q 569 38 528 14 q 488 -10 424 -10 q 373 -10 278 28 q 205 -13 141 -13 q 102 -13 75 2 q 48 18 48 41 q 48 67 82 85 q 115 104 163 104 q 212 104 305 74 z m 251 38 q 172 77 133 77 q 82 77 82 51 q 82 36 105 24 q 128 11 158 11 q 201 11 251 38 z"},"3":{"x_min":0,"x_max":365,"ha":365,"o":"m 239 241 q 337 212 337 132 q 337 77 284 30 q 230 -16 160 -16 q 103 -16 65 17 q 28 50 28 92 q 28 123 48 144 q 69 166 98 166 q 148 166 173 111 l 161 102 q 145 125 117 125 q 97 125 83 110 q 68 96 68 75 q 68 47 96 26 q 125 5 164 5 q 213 5 248 40 q 283 76 283 125 q 283 166 257 196 q 231 226 203 226 q 192 226 181 219 q 171 212 157 212 q 142 212 142 220 q 142 238 200 240 q 269 281 269 346 q 269 386 241 412 q 213 439 170 439 q 130 439 104 415 q 78 391 78 359 q 78 339 93 323 q 108 307 127 307 q 158 307 174 344 l 185 339 q 164 271 112 271 q 83 271 66 289 q 48 307 48 338 q 48 390 91 428 q 135 466 197 466 q 250 466 283 438 q 316 409 316 363 q 316 294 239 241 z"},";":{"x_min":0,"x_max":188,"ha":188,"o":"m 145 187 l 99 138 l 53 184 l 99 236 z m 146 24 q 110 -48 46 -98 l 38 -87 q 82 -29 82 -11 q 82 -1 53 23 l 100 72 z"},"J":{"x_min":0,"x_max":469,"ha":469,"o":"m 339 425 q 356 437 380 437 q 417 437 440 411 q 463 386 463 344 q 463 236 340 189 q 369 79 369 -8 q 369 -136 302 -214 q 234 -292 139 -292 q 74 -292 32 -253 q -10 -215 -10 -154 q -10 -102 25 -67 q 60 -32 105 -32 q 144 -32 172 -57 q 200 -83 200 -118 q 200 -151 177 -175 q 155 -199 116 -199 l 112 -185 q 156 -173 156 -129 q 156 -102 138 -85 q 120 -68 92 -68 q 58 -68 36 -94 q 13 -121 13 -159 q 13 -207 50 -239 q 87 -271 142 -271 q 216 -271 262 -210 q 308 -149 308 -46 q 308 21 278 176 q 185 177 135 221 q 86 265 86 346 q 86 459 189 553 q 292 647 428 653 l 433 640 q 313 580 313 400 q 313 319 337 208 q 376 221 397 254 q 419 287 419 327 q 419 365 400 391 q 381 416 356 416 l 344 416 z m 385 631 q 276 611 210 529 q 144 447 144 350 q 144 208 275 197 q 262 297 262 336 q 262 521 385 631 z"},"V":{"x_min":0,"x_max":667,"ha":667,"o":"m 650 507 q 644 502 618 491 q 640 417 640 330 q 640 178 582 82 q 523 -14 433 -14 q 357 -14 305 57 q 254 128 254 246 q 254 323 277 397 q 300 470 359 570 q 329 553 298 553 q 252 553 206 588 q 170 614 140 614 q 110 614 90 591 q 70 568 70 537 q 70 512 88 493 q 107 474 131 474 q 148 474 160 484 q 172 493 172 508 q 172 518 166 528 q 160 537 150 539 l 151 547 q 157 548 168 548 q 212 548 212 507 q 212 479 192 460 q 172 442 141 442 q 103 442 76 471 q 50 500 50 538 q 50 583 85 619 q 121 655 169 655 q 194 655 224 643 q 253 630 276 612 q 310 585 335 585 q 373 585 407 639 l 422 630 q 318 471 318 268 q 318 153 353 83 q 388 13 447 13 q 513 13 560 90 q 606 167 606 288 q 606 393 568 481 q 504 484 470 519 q 435 554 435 601 q 435 623 447 636 q 459 650 479 650 q 513 650 549 613 q 585 575 611 511 q 630 518 642 524 z m 560 503 q 545 542 522 567 q 499 593 482 593 q 465 593 465 572 q 465 553 491 529 q 517 505 560 503 z"},"\"":{"x_min":0,"x_max":260,"ha":260,"o":"m 57 437 l 39 585 q 35 619 35 633 q 35 652 44 664 q 52 677 66 677 q 96 677 96 633 q 96 612 92 583 l 72 437 z m 188 437 l 170 585 q 165 627 165 633 q 165 652 174 665 q 182 677 196 677 q 210 677 218 665 q 226 653 226 633 q 226 612 222 583 l 202 437 z"},"7":{"x_min":0,"x_max":365,"ha":365,"o":"m 359 455 q 355 436 308 378 q 228 282 193 204 q 159 125 159 91 q 159 69 170 53 q 182 37 200 37 q 227 37 246 79 l 254 76 q 251 34 228 8 q 206 -18 175 -18 q 143 -18 124 8 q 105 33 105 75 q 105 170 210 294 l 300 400 q 297 400 278 395 q 260 390 241 390 q 220 390 185 396 q 149 403 135 403 q 109 403 92 393 q 74 382 73 377 l 62 321 l 42 324 l 70 473 l 90 470 l 80 417 q 138 457 187 457 q 199 457 241 444 q 283 431 302 431 q 321 431 349 460 z"},"S":{"x_min":0,"x_max":573,"ha":573,"o":"m 504 645 q 487 617 449 597 q 412 577 377 577 q 343 577 281 597 q 219 617 201 617 q 167 617 143 591 q 119 565 119 529 q 119 493 141 470 q 164 448 197 435 q 229 422 299 402 q 369 383 412 365 q 454 347 484 310 q 513 274 513 215 q 513 126 441 58 q 368 -11 261 -11 q 164 -11 99 40 q 35 91 35 162 q 35 214 73 249 q 110 284 170 284 q 232 284 276 250 q 319 215 319 168 q 319 136 297 115 q 274 94 243 94 q 191 94 166 142 l 178 149 q 197 130 219 130 q 243 130 259 147 q 275 164 275 189 q 275 221 248 242 q 222 263 184 263 q 140 263 111 231 q 82 199 82 154 q 82 95 134 52 q 186 10 265 10 q 350 10 406 63 q 462 116 462 187 q 462 236 436 266 q 410 296 373 312 q 337 327 272 345 q 207 364 171 379 q 134 394 110 423 q 85 452 85 498 q 85 562 135 607 q 186 653 252 653 q 283 653 340 637 q 397 621 423 621 q 464 621 495 654 z"},"}":{"x_min":0,"x_max":438,"ha":438,"o":"m 311 222 q 255 211 229 182 q 203 153 203 122 q 203 105 213 55 q 223 4 223 -27 q 223 -81 181 -130 q 139 -179 64 -192 l 64 -174 q 110 -167 138 -137 q 165 -108 165 -70 q 165 -47 155 4 q 145 56 145 77 q 145 124 178 164 q 211 204 275 229 q 213 254 180 295 q 147 336 147 377 q 147 411 156 459 q 166 508 166 525 q 166 612 64 636 l 64 653 q 139 639 181 589 q 224 540 224 469 q 224 451 214 408 q 205 366 205 334 q 205 305 234 276 q 263 247 311 239 z"},"Z":{"x_min":0,"x_max":542,"ha":542,"o":"m 568 80 q 532 21 484 -7 q 458 -136 384 -215 q 309 -294 250 -294 q 222 -294 201 -276 q 181 -259 181 -231 q 181 -188 220 -146 q 259 -104 430 -11 q 434 15 434 37 q 434 116 390 155 q 319 99 273 99 q 237 99 237 129 q 237 156 274 178 q 311 200 357 200 q 376 200 399 192 q 480 280 480 400 q 480 497 429 559 q 377 620 305 620 q 233 620 177 557 q 122 494 122 414 q 122 352 153 308 q 185 265 229 265 q 264 265 293 293 q 322 321 322 361 q 322 389 307 406 q 292 424 271 424 q 249 424 238 405 l 228 412 q 243 465 288 465 q 316 465 336 442 q 356 418 356 383 q 356 327 311 280 q 266 233 208 233 q 152 233 115 274 q 78 316 78 385 q 78 493 156 570 q 235 647 337 647 q 422 647 478 591 q 534 535 534 444 q 534 376 507 315 q 479 253 418 184 q 488 140 488 40 l 487 22 q 519 44 552 92 z m 368 166 q 354 173 335 173 q 311 173 294 163 q 277 154 277 142 q 277 131 293 131 q 308 131 330 140 q 352 149 368 166 z m 427 -39 q 322 -94 274 -139 q 225 -185 225 -229 q 225 -246 235 -256 q 246 -267 262 -267 q 309 -267 359 -203 q 410 -139 427 -39 z"},"x":{"x_min":0,"x_max":323,"ha":323,"o":"m 343 77 q 316 36 288 13 q 260 -10 241 -10 q 225 -10 213 5 q 202 20 166 78 q 160 70 141 40 q 122 10 106 -1 q 90 -11 74 -11 q 43 -11 33 14 q 45 42 61 55 q 78 25 90 25 q 108 25 128 58 l 154 101 l 121 161 q 110 181 103 181 q 95 181 63 136 q 32 91 13 68 l -2 80 q 59 168 82 197 q 106 225 120 225 q 141 225 155 199 l 183 151 q 216 205 232 216 q 248 227 264 227 q 285 227 298 210 q 293 194 267 165 q 254 186 244 186 q 235 186 227 177 q 218 167 197 128 q 243 47 251 41 q 259 34 270 34 q 287 34 327 89 z"},")":{"x_min":0,"x_max":188,"ha":188,"o":"m 24 653 q 161 487 161 279 q 161 74 35 -81 l 20 -68 q 114 75 114 275 q 114 474 9 642 z"},"&":{"x_min":0,"x_max":646,"ha":646,"o":"m 556 321 q 580 307 580 282 q 580 266 568 254 q 557 243 537 243 q 518 243 483 253 q 448 263 434 264 q 480 226 480 172 q 480 100 419 45 q 359 -10 278 -10 q 200 -10 145 43 q 91 97 91 172 q 91 233 127 277 q 163 322 231 341 q 123 370 123 442 q 123 497 174 538 q 225 579 294 579 q 326 579 380 567 q 434 555 452 555 q 483 555 508 571 l 516 558 q 474 514 415 514 q 382 514 332 533 q 281 552 259 552 q 223 552 200 525 q 177 498 177 455 q 177 412 205 387 q 234 362 283 362 q 310 362 333 368 l 336 352 q 246 341 199 293 q 152 246 152 173 q 152 104 196 61 q 240 17 302 17 q 359 17 399 57 q 440 97 440 156 q 440 201 419 227 q 397 254 361 254 q 332 254 314 238 q 296 222 296 197 q 296 180 306 171 q 316 161 332 161 q 351 161 365 177 l 371 163 q 349 120 317 120 q 294 120 278 137 q 262 155 262 180 q 262 225 301 253 q 339 281 408 281 l 503 276 q 553 276 553 302 q 553 309 549 313 z"},"_":{"x_min":0,"x_max":500,"ha":500,"o":"m 506 -125 l -6 -125 l -6 -75 l 506 -75 z"},"v":{"x_min":0,"x_max":271,"ha":271,"o":"m 126 315 q 138 322 157 322 q 196 322 224 289 q 252 255 252 205 q 252 89 125 -16 l 119 -12 q 121 3 121 14 q 121 59 64 138 q 53 127 36 101 l 13 67 l -2 80 q 7 91 21 115 q 35 139 43 150 q 68 185 73 222 l 80 222 q 85 197 113 156 q 142 115 148 93 q 155 71 155 52 l 155 38 q 232 117 232 206 q 232 239 216 259 q 200 278 174 278 q 154 278 136 268 q 126 289 126 315 z m 291 77 q 238 -9 159 -16 l 156 -7 q 191 1 216 21 q 240 40 275 89 z"},"O":{"x_min":0,"x_max":573,"ha":573,"o":"m 340 427 q 351 407 351 382 q 351 345 325 319 q 299 294 264 294 q 224 294 195 329 q 167 363 167 421 q 167 513 224 581 q 281 649 348 649 q 421 649 474 569 q 527 489 527 366 q 527 213 449 102 q 371 -9 264 -9 q 174 -9 110 73 q 47 154 47 281 q 47 485 203 626 l 214 612 q 94 504 94 335 q 94 212 158 126 q 222 40 306 40 q 381 40 432 115 q 483 190 483 315 q 483 440 429 520 q 375 600 306 600 q 259 600 228 560 q 197 520 197 459 q 197 410 219 378 q 241 347 275 347 q 301 347 316 363 q 331 379 331 404 q 331 416 330 423 z"},"(":{"x_min":0,"x_max":188,"ha":188,"o":"m 178 642 q 73 474 73 275 q 73 75 167 -68 l 152 -81 q 26 74 26 279 q 26 488 163 653 z"},"C":{"x_min":0,"x_max":469,"ha":469,"o":"m 497 89 q 461 33 414 9 q 367 -15 294 -15 q 176 -15 105 57 q 34 129 34 247 q 34 346 85 440 q 135 535 218 592 q 300 649 383 649 q 443 649 479 615 q 514 582 514 523 q 514 437 452 369 q 390 301 318 301 q 281 301 258 323 q 235 346 235 382 q 235 439 300 490 l 310 478 q 275 455 275 406 q 275 375 296 356 q 316 337 348 337 q 397 337 436 380 q 474 422 474 483 q 474 542 438 577 q 402 613 343 613 q 244 613 168 521 q 92 428 92 299 q 92 180 160 100 q 228 21 332 21 q 384 21 418 39 q 453 58 481 101 z"},"W":{"x_min":0,"x_max":833,"ha":833,"o":"m 789 512 q 778 503 751 495 q 772 415 772 343 q 772 197 712 93 q 652 -11 577 -11 q 518 -11 481 51 q 442 -12 384 -12 q 320 -12 274 57 q 229 127 229 233 q 229 392 345 565 q 327 559 306 559 q 266 559 202 593 q 151 620 127 620 q 99 620 81 600 q 62 579 62 550 q 62 525 79 508 q 95 491 118 491 q 139 491 154 506 q 168 521 168 540 q 168 544 166 555 l 178 559 q 188 545 188 522 q 188 492 169 474 q 150 455 121 455 q 88 455 65 479 q 42 504 42 543 q 42 592 77 624 q 112 656 169 656 q 191 656 215 649 q 239 642 275 617 q 311 593 330 593 q 358 593 401 637 l 411 627 q 294 476 294 247 q 294 141 324 81 q 354 20 401 20 q 428 20 451 41 q 473 62 473 86 l 473 463 l 531 493 l 531 107 q 531 66 548 41 q 566 16 593 16 q 648 16 693 101 q 738 185 738 304 q 738 400 699 483 l 696 483 q 621 483 577 516 q 533 550 533 596 q 533 621 549 636 q 564 652 590 652 q 633 652 673 617 q 713 582 743 514 l 744 514 q 753 514 779 531 z m 689 503 q 637 603 590 603 q 567 603 567 577 q 567 551 600 527 q 632 503 679 503 z"},"A":{"x_min":0,"x_max":510,"ha":510,"o":"m 344 97 q 271 -10 180 -10 q 115 -10 75 43 q 34 97 34 180 q 34 293 94 406 q 153 520 247 589 q 340 659 430 659 q 488 659 523 620 q 557 582 557 516 q 557 364 406 274 l 406 73 q 406 44 409 35 q 413 25 429 25 q 465 25 514 89 l 530 76 q 496 28 469 8 q 441 -11 411 -11 q 378 -11 361 7 q 344 25 344 97 z m 406 301 q 460 328 489 377 q 517 425 517 484 q 517 546 481 582 q 445 618 385 618 q 275 618 185 502 q 95 387 95 226 q 95 138 127 84 q 159 31 209 31 q 224 31 239 35 q 254 40 268 49 q 283 58 296 72 q 310 85 327 112 q 344 138 344 145 l 344 251 q 328 249 316 249 q 265 249 235 279 q 205 309 205 359 q 205 407 235 453 q 264 500 316 524 l 323 513 q 249 451 249 377 q 249 333 273 307 q 296 281 337 281 l 344 281 l 344 478 l 406 511 z"},"f":{"x_min":0,"x_max":198,"ha":198,"o":"m 1 84 q 10 99 20 115 q 29 131 46 168 q 64 205 64 210 l 64 429 q 64 486 102 530 q 140 574 188 574 q 245 574 245 521 q 245 474 219 412 q 192 350 113 224 l 113 20 q 136 21 154 34 q 173 46 209 98 l 224 86 q 167 -8 113 -8 l 113 -177 q 113 -233 82 -267 q 51 -301 5 -301 q -43 -301 -71 -259 l -31 -219 l -23 -226 q -26 -235 -26 -240 q -26 -259 -14 -272 q -2 -285 16 -285 q 64 -285 64 -188 l 64 -8 q 40 -4 14 14 q 19 35 36 56 q 50 34 64 29 l 64 158 q 44 111 15 71 z m 113 272 q 205 420 205 509 q 205 553 173 553 q 149 553 131 528 q 113 503 113 462 z"},"Q":{"x_min":0,"x_max":573,"ha":573,"o":"m 544 71 q 513 -11 489 -11 q 478 -11 450 1 q 423 14 389 37 q 338 -9 264 -9 q 172 -9 109 73 q 47 154 47 286 q 47 493 202 627 l 214 616 q 151 554 123 489 q 94 423 94 340 q 94 160 216 71 q 245 108 300 108 q 332 108 363 95 q 394 83 403 81 q 445 129 463 184 q 480 238 480 315 q 480 440 428 521 q 376 601 306 601 q 258 601 228 562 q 197 523 197 461 q 197 409 218 380 q 240 350 275 350 q 300 350 315 365 q 330 380 330 405 q 330 416 328 425 l 340 430 q 350 407 350 385 q 350 347 324 322 q 298 297 262 297 q 222 297 194 332 q 167 368 167 426 q 167 518 219 584 q 271 650 345 650 q 424 650 475 567 q 527 485 527 361 q 527 280 500 203 q 474 126 425 72 q 462 61 486 61 q 515 61 538 73 z m 362 56 q 319 87 291 87 q 259 87 234 62 q 264 44 305 44 q 336 44 362 56 z"},"w":{"x_min":0,"x_max":385,"ha":385,"o":"m 205 303 q 212 312 230 312 q 278 312 308 277 q 338 243 338 187 q 338 144 320 101 q 302 59 248 -12 l 237 -7 q 240 6 240 15 q 240 37 231 57 q 222 78 207 98 l 183 130 q 151 29 96 -12 l 85 -7 q 88 13 88 21 q 88 34 78 66 q 68 98 53 129 q 24 82 13 68 l -2 82 q 51 157 72 224 l 82 220 q 82 187 104 144 q 126 101 126 58 l 126 51 l 129 51 q 174 130 189 229 l 201 229 q 201 187 233 151 q 272 109 275 52 q 318 124 318 182 q 318 263 252 263 q 230 263 221 261 q 205 286 205 303 z m 405 77 q 353 -9 273 -16 l 270 -7 q 305 1 330 21 q 354 40 390 89 z"},"-":{"x_min":0,"x_max":188,"ha":188,"o":"m 168 105 l 26 105 l 26 141 l 168 141 z"},"E":{"x_min":0,"x_max":521,"ha":521,"o":"m 516 612 q 470 572 404 572 q 368 572 316 590 q 265 608 236 608 q 191 608 165 579 q 138 549 138 501 q 138 451 167 420 q 197 389 241 389 q 260 389 296 397 l 299 377 q 206 365 154 311 q 101 257 101 179 q 101 106 145 62 q 188 17 257 17 q 329 17 382 68 q 434 120 434 184 q 434 229 408 260 q 381 292 345 292 q 315 292 292 270 q 269 249 269 221 q 269 202 281 188 q 292 175 308 175 q 327 175 341 193 l 352 187 q 340 134 293 134 q 269 134 254 151 q 239 168 239 197 q 239 246 280 285 q 321 324 377 324 q 423 324 450 295 q 478 265 478 221 q 478 135 411 62 q 344 -10 241 -10 q 149 -10 92 44 q 34 97 34 175 q 34 235 75 286 q 116 337 191 365 q 80 389 80 478 q 80 544 148 596 q 215 649 300 649 q 334 649 388 631 q 441 613 467 613 q 486 613 509 625 z"},"s":{"x_min":0,"x_max":260,"ha":260,"o":"m 113 236 q 151 216 174 179 q 197 141 197 103 q 197 58 170 24 q 144 -10 102 -10 q 82 -10 58 4 q 34 18 16 44 q 31 67 60 84 l 64 79 q 63 74 63 65 q 63 44 78 28 q 92 11 111 11 q 134 11 148 31 q 163 50 163 79 q 163 140 91 187 l 49 122 q 24 82 13 68 l -2 80 q 48 154 97 260 l 109 259 z m 280 77 q 228 -9 148 -16 l 145 -7 q 180 1 205 21 q 229 40 265 89 z"},">":{"x_min":0,"x_max":615,"ha":615,"o":"m 549 214 l 65 9 l 65 45 l 506 228 l 65 413 l 65 449 l 549 243 z"},"l":{"x_min":0,"x_max":188,"ha":188,"o":"m -2 80 q 7 93 15 105 q 22 116 30 131 q 38 146 48 170 q 57 194 57 202 l 57 391 q 57 461 101 518 q 145 574 193 574 q 218 574 233 557 q 247 539 247 510 q 247 471 215 405 q 183 338 106 219 l 106 78 q 106 48 108 37 q 111 26 121 26 q 143 26 192 90 l 207 77 q 149 -10 92 -10 q 75 -10 66 2 q 57 13 57 54 l 57 143 q 42 104 13 68 z m 106 255 q 171 362 192 411 q 213 459 213 495 q 213 550 179 550 q 148 550 127 515 q 106 480 106 421 z"},"8":{"x_min":0,"x_max":365,"ha":365,"o":"m 233 242 q 290 214 313 188 q 336 162 336 126 q 336 66 292 26 q 249 -14 179 -14 q 114 -14 74 22 q 33 58 33 111 q 33 188 126 236 q 82 266 68 288 q 54 310 54 338 q 54 393 98 430 q 142 468 205 468 q 259 468 293 439 q 327 411 327 367 q 327 328 307 300 q 286 271 233 242 z m 210 254 q 287 283 287 349 q 287 392 259 416 q 231 441 183 441 q 142 441 118 420 q 94 399 94 365 q 94 297 210 254 z m 148 223 q 77 194 77 125 q 77 75 110 41 q 144 7 196 7 q 240 7 268 33 q 296 60 296 98 q 296 126 280 147 q 264 168 208 195 z"},"\\":{"x_min":0,"x_max":490,"ha":490,"o":"m 434 -72 l 400 -72 l 56 642 l 90 642 z"},"e":{"x_min":0,"x_max":260,"ha":260,"o":"m 280 77 q 251 30 217 9 q 183 -12 127 -12 q 86 -12 63 12 q 39 36 39 80 q 39 92 41 105 q 23 83 14 69 l -2 80 q 62 170 96 198 q 130 226 166 226 q 186 226 199 214 q 212 203 212 184 q 212 121 100 59 q 115 24 163 24 q 186 24 214 41 q 242 57 265 89 z m 91 78 q 172 118 172 166 q 172 181 164 190 q 156 199 142 199 q 117 199 100 176 q 83 153 83 121 q 83 104 87 91 q 91 80 91 78 z"},"b":{"x_min":0,"x_max":333,"ha":333,"o":"m 116 177 q 155 228 212 228 q 244 228 264 205 q 284 183 284 147 q 284 89 241 40 q 199 -10 146 -10 q 107 -10 86 15 q 64 40 64 85 l 64 158 q 47 116 15 71 l 1 84 q 28 127 46 167 q 64 208 64 210 l 64 391 q 64 476 101 528 q 137 580 185 580 q 209 580 225 563 q 240 546 240 519 q 240 481 212 418 q 184 355 116 239 z m 116 279 q 171 376 189 422 q 206 467 206 503 q 206 527 196 542 q 186 556 169 556 q 145 556 131 528 q 116 500 116 454 z m 116 76 q 116 11 160 11 q 190 11 215 42 q 240 74 240 116 q 240 151 224 172 q 208 192 182 192 q 152 192 134 170 q 116 147 116 143 z m 353 77 q 299 -8 210 -18 l 206 -7 q 285 11 338 89 z"},"%":{"x_min":0,"x_max":667,"ha":667,"o":"m 182 473 q 229 473 259 437 q 289 400 289 346 q 289 292 259 256 q 228 219 182 219 q 136 219 106 256 q 75 293 75 346 q 75 400 105 437 q 136 473 182 473 z m 182 235 q 213 235 231 264 q 249 292 249 346 q 249 399 231 428 q 213 457 182 457 q 151 457 133 428 q 115 399 115 346 q 115 292 133 264 q 150 235 182 235 z m 456 472 l 239 -9 l 211 -9 l 429 473 z m 484 245 q 530 245 561 208 q 591 172 591 118 q 591 64 561 28 q 530 -8 484 -8 q 438 -8 407 29 q 377 65 377 118 q 377 172 407 208 q 438 245 484 245 z m 484 8 q 515 8 533 36 q 551 65 551 118 q 551 171 533 200 q 516 229 484 229 q 453 229 435 200 q 417 171 417 118 q 417 64 435 36 q 452 8 484 8 z"},"m":{"x_min":0,"x_max":479,"ha":479,"o":"m 499 77 q 442 -10 384 -10 q 367 -10 358 1 q 349 12 349 54 l 349 168 q 349 186 335 186 q 327 186 317 179 q 308 173 298 160 q 287 146 270 116 q 252 86 252 82 l 252 5 l 203 -19 l 203 159 q 203 181 188 181 q 175 181 160 167 q 145 154 125 120 q 106 86 106 82 l 106 5 l 57 -19 l 57 143 q 42 104 13 68 l -2 80 q 41 138 57 205 l 106 228 l 106 127 q 162 222 211 222 q 231 222 242 206 q 252 190 252 127 q 283 180 306 201 q 330 222 356 222 q 398 222 398 165 l 398 75 q 398 41 401 33 q 405 26 413 26 q 435 26 484 90 z"},"#":{"x_min":0,"x_max":615,"ha":615,"o":"m 573 103 l 420 103 l 382 -88 l 347 -88 l 387 103 l 173 103 l 135 -88 l 100 -88 l 140 103 l 41 103 l 41 136 l 147 136 l 187 328 l 41 328 l 41 361 l 195 361 l 235 552 l 268 552 l 228 361 l 441 361 l 480 552 l 514 552 l 474 361 l 573 361 l 573 328 l 467 328 l 428 136 l 573 136 z m 434 328 l 221 328 l 181 136 l 394 136 z"},",":{"x_min":0,"x_max":188,"ha":188,"o":"m 137 24 q 107 -50 42 -96 l 32 -85 q 63 -54 83 -15 l 48 23 l 91 72 z"},"n":{"x_min":0,"x_max":333,"ha":333,"o":"m 353 77 q 294 -10 240 -10 q 223 -10 213 2 q 204 13 204 54 l 204 166 q 204 192 188 192 q 180 192 172 186 q 163 180 153 169 q 144 157 126 131 q 108 104 108 101 l 108 13 l 59 -18 l 59 146 q 44 107 13 68 l -2 80 q 47 149 60 205 l 108 228 l 108 137 q 144 189 166 207 q 188 224 210 224 q 230 224 242 209 q 253 195 253 137 l 253 72 q 253 45 255 36 q 257 26 267 26 q 291 26 338 90 z"},"h":{"x_min":0,"x_max":354,"ha":354,"o":"m 374 77 q 314 -10 259 -10 q 242 -10 234 2 q 225 15 225 54 l 225 161 q 225 189 203 189 q 186 189 167 172 q 147 155 132 126 q 116 97 116 88 l 116 13 l 67 -18 l 67 154 q 42 104 13 68 l -2 80 q 10 98 21 115 q 31 131 49 167 q 67 203 67 210 l 67 421 q 67 490 101 535 q 135 579 181 579 q 236 579 236 512 q 236 425 116 234 l 116 142 q 151 188 176 207 q 201 225 229 225 q 274 225 274 161 l 274 63 q 274 26 288 26 q 313 26 359 90 z m 116 276 q 165 363 184 414 q 202 465 202 507 q 202 531 192 547 q 183 563 167 563 q 144 563 130 533 q 116 502 116 449 z"},"z":{"x_min":0,"x_max":292,"ha":292,"o":"m 311 77 q 277 23 231 -1 q 250 -40 250 -95 q 250 -176 208 -236 q 165 -297 101 -297 q 67 -297 41 -276 q 14 -255 10 -225 q 30 -208 63 -194 l 69 -200 q 65 -211 65 -227 q 65 -249 79 -262 q 93 -276 113 -276 q 149 -276 177 -233 q 206 -191 206 -122 q 206 -67 184 -22 q 163 22 123 46 q 96 13 71 13 q 45 13 45 33 q 45 51 65 63 q 86 75 117 75 l 121 75 q 171 136 199 184 q 171 170 135 170 q 104 170 82 180 q 52 120 13 68 l -2 80 q 30 126 84 236 q 134 206 168 206 q 205 206 238 235 l 250 226 q 212 156 141 69 q 191 57 221 16 q 262 38 296 89 z m 105 54 l 93 54 q 85 54 75 49 q 65 43 65 35 q 65 29 73 29 q 81 29 91 36 q 100 42 105 54 z"},"B":{"x_min":0,"x_max":677,"ha":677,"o":"m 502 350 q 627 314 627 184 q 627 104 584 45 q 541 -14 483 -14 q 419 -14 392 41 q 401 50 440 69 q 444 65 445 62 q 456 13 500 13 q 535 13 559 49 q 583 84 583 142 q 583 218 541 264 q 500 310 431 310 l 429 319 q 471 335 496 374 q 521 413 521 456 q 521 519 472 563 q 424 608 354 608 q 250 608 166 532 q 82 456 82 360 q 82 314 103 286 q 124 258 157 258 q 196 258 230 313 l 240 307 q 225 264 196 240 q 167 217 131 217 q 92 217 69 246 q 45 275 45 322 q 45 397 93 474 q 142 551 222 597 q 302 644 390 644 q 470 644 517 602 q 565 560 565 490 q 565 412 502 350 z m 425 544 q 391 492 391 429 q 391 396 401 327 q 412 258 412 223 q 412 122 353 53 q 293 -16 206 -16 q 149 -16 112 17 q 74 50 67 111 q 94 124 131 133 l 133 126 q 122 107 122 86 q 122 54 148 29 q 174 5 213 5 q 272 5 313 56 q 354 107 354 193 q 354 220 349 272 q 344 325 344 351 q 344 478 417 552 z"},"K":{"x_min":0,"x_max":813,"ha":813,"o":"m 861 606 l 814 559 l 807 564 q 807 592 787 612 q 767 633 745 633 q 718 633 695 612 q 672 591 635 500 q 582 369 532 316 q 556 304 574 285 q 592 266 611 218 l 653 114 q 676 60 680 53 q 685 46 697 37 q 710 29 724 29 q 769 29 820 101 l 836 89 q 771 -12 692 -12 q 650 -12 621 30 q 592 72 569 170 q 546 268 511 298 q 489 284 469 284 l 460 285 l 460 245 q 460 141 399 65 q 338 -10 250 -10 q 156 -10 99 77 l 157 131 l 164 125 q 162 122 162 113 q 162 65 190 38 q 217 11 262 11 q 323 11 363 60 q 402 108 402 198 q 402 233 390 309 q 379 385 379 430 q 379 513 414 576 q 374 546 338 546 q 293 546 250 583 q 213 615 174 615 q 135 615 107 584 q 79 553 79 508 q 79 468 103 443 q 127 418 164 418 q 208 418 238 454 l 246 448 q 219 374 153 374 q 108 374 80 405 q 52 436 52 487 q 52 558 102 607 q 152 656 211 656 q 258 656 307 612 q 344 580 370 580 q 408 580 450 641 l 463 632 q 419 572 419 494 q 419 457 434 399 q 450 342 455 316 q 471 323 493 323 l 510 322 q 529 340 545 366 q 562 393 583 458 q 605 523 626 562 q 647 600 684 627 q 722 654 762 654 q 816 654 861 606 z m 490 307 q 466 307 460 300 q 466 298 470 298 q 481 298 490 307 z"},"R":{"x_min":0,"x_max":740,"ha":740,"o":"m 768 89 q 705 -13 626 -13 q 601 -13 578 0 q 555 14 537 39 q 520 63 514 86 l 498 160 q 479 243 468 270 q 457 298 431 302 l 431 313 q 473 320 504 367 q 534 413 534 467 q 534 536 486 580 q 437 623 360 623 q 261 623 185 555 q 108 488 108 392 q 108 341 132 310 q 157 278 193 278 q 232 278 259 312 l 269 304 q 234 234 164 234 q 118 234 89 267 q 61 300 61 357 q 61 470 157 560 q 253 650 390 650 q 484 650 538 607 q 592 564 592 489 q 592 429 557 378 q 522 328 465 309 q 486 301 507 278 q 528 254 535 234 l 557 163 q 584 74 600 48 q 615 23 651 23 q 699 23 753 101 z m 440 563 q 392 517 392 445 q 392 417 404 344 q 416 271 416 222 q 416 121 361 53 q 305 -15 225 -15 q 170 -15 130 19 q 89 52 81 113 l 153 132 l 157 127 q 145 107 145 84 q 145 54 169 30 q 193 6 231 6 q 287 6 322 50 q 358 95 358 161 q 358 216 349 277 q 341 339 341 355 q 341 432 358 479 q 376 527 431 576 z"},"T":{"x_min":0,"x_max":521,"ha":521,"o":"m 574 628 q 534 592 475 592 q 453 592 444 594 q 404 556 404 489 q 404 447 430 381 q 456 314 462 284 q 468 253 468 228 q 468 133 396 61 q 323 -11 220 -11 q 145 -11 99 28 q 53 68 53 132 q 53 203 108 253 q 163 303 239 303 q 279 303 302 283 q 324 263 324 227 q 324 182 289 154 q 253 125 186 122 l 186 135 q 277 147 277 210 q 277 240 258 258 q 238 276 206 276 q 159 276 128 245 q 97 213 97 161 q 97 99 139 58 q 182 16 245 16 q 317 16 367 66 q 417 117 417 189 q 417 234 387 321 q 357 408 357 451 q 357 534 421 596 q 350 613 299 613 q 235 613 197 582 q 159 552 159 501 q 159 469 177 450 q 195 431 220 431 q 237 431 251 443 q 265 456 269 478 l 282 478 q 277 387 205 387 q 169 387 147 410 q 125 434 125 473 q 125 547 190 601 q 255 654 356 654 q 403 654 462 641 q 522 628 534 628 q 554 628 568 641 z"},"P":{"x_min":0,"x_max":542,"ha":542,"o":"m 267 312 q 230 242 164 242 q 119 242 91 277 q 62 312 62 370 q 62 482 158 571 q 254 659 393 659 q 483 659 537 614 q 591 569 591 497 q 591 435 550 379 q 509 324 435 303 l 431 318 q 533 357 533 471 q 533 543 487 588 q 440 632 363 632 q 259 632 183 563 q 106 495 106 399 q 106 348 132 317 q 158 286 192 286 q 235 286 253 318 z m 435 576 q 394 528 394 445 q 394 421 405 352 q 417 282 417 233 q 417 124 362 58 q 306 -9 222 -9 q 162 -9 123 25 q 84 60 84 108 l 84 121 l 150 136 l 153 130 q 142 113 142 91 q 142 59 167 35 q 192 12 230 12 q 286 12 321 59 q 356 106 356 190 q 356 234 348 306 q 340 378 340 402 q 340 453 359 496 q 378 538 423 585 z"},"|":{"x_min":0,"x_max":479,"ha":479,"o":"m 257 -189 l 222 -189 l 222 642 l 257 642 z"},"t":{"x_min":0,"x_max":219,"ha":219,"o":"m 238 78 q 183 -10 121 -10 q 92 -10 84 4 q 77 18 77 49 l 77 167 q 44 111 13 69 l -3 80 q 15 107 28 127 q 41 147 59 179 q 77 212 77 216 l 77 416 l 126 464 l 126 278 l 201 396 l 220 382 l 126 233 l 126 83 q 126 49 129 37 q 132 26 145 26 q 178 26 224 91 z"},"M":{"x_min":0,"x_max":979,"ha":979,"o":"m 1007 89 q 976 39 938 15 q 901 -9 850 -9 q 792 -9 756 38 q 719 85 719 161 q 719 314 864 518 q 836 506 807 506 q 775 506 746 523 l 660 418 l 660 7 l 603 -22 l 603 514 q 603 542 590 542 q 578 542 553 509 q 528 477 528 467 q 528 466 529 460 q 540 406 540 357 q 540 204 457 98 q 375 -9 263 -9 q 164 -9 120 63 l 172 109 l 179 104 q 198 18 286 18 q 368 18 432 103 q 496 188 496 319 q 496 447 435 526 q 374 605 286 605 q 207 605 147 541 q 88 476 88 399 q 88 344 120 305 q 152 267 199 267 q 247 267 281 303 q 315 339 315 388 q 315 415 301 432 q 287 450 266 450 q 235 450 231 417 l 221 419 q 218 432 218 439 q 218 464 234 481 q 251 499 276 499 q 306 499 326 472 q 345 445 345 404 q 345 333 296 278 q 247 223 176 223 q 120 223 87 260 q 54 297 54 362 q 54 474 137 562 q 220 649 326 649 q 393 649 440 613 q 487 577 521 500 q 559 551 579 569 q 600 586 619 586 q 636 586 648 569 q 660 552 660 523 l 660 448 l 769 589 q 797 542 845 542 q 886 542 918 578 l 929 567 q 837 470 807 369 q 777 268 777 181 q 777 112 807 70 q 837 27 885 27 q 941 27 992 101 z"},"g":{"x_min":0,"x_max":354,"ha":354,"o":"m 380 86 q 325 -1 281 -7 l 281 -161 q 281 -223 242 -261 q 203 -300 146 -300 q 108 -300 76 -282 q 44 -265 37 -240 l 78 -201 l 85 -208 q 83 -214 83 -221 q 83 -246 103 -265 q 123 -284 151 -284 q 189 -284 210 -255 q 232 -225 232 -172 l 232 48 q 185 -12 130 -12 q 89 -12 64 17 q 38 46 38 83 l 38 103 l 14 69 l -2 80 q 57 163 94 193 q 131 223 168 223 q 208 223 232 200 l 281 230 l 281 22 q 315 25 365 98 z m 232 81 l 232 173 q 209 207 172 207 q 137 207 113 179 q 89 150 89 110 q 89 72 106 50 q 124 29 155 29 q 188 29 210 51 q 232 73 232 81 z"},"j":{"x_min":0,"x_max":198,"ha":198,"o":"m 127 327 l 93 281 l 59 327 l 93 372 z m 224 86 q 166 -9 115 -8 l 115 -159 q 115 -196 110 -229 q 104 -263 75 -284 q 45 -305 17 -305 q -39 -305 -54 -252 q -36 -235 -10 -221 l -6 -228 q -9 -237 -9 -243 q -9 -261 1 -273 q 11 -284 29 -284 q 54 -284 60 -257 q 66 -230 66 -145 l 66 157 q 51 121 16 71 l 2 84 q 44 151 65 207 l 115 232 l 115 20 q 138 20 157 37 q 177 53 209 99 z"},"i":{"x_min":0,"x_max":188,"ha":188,"o":"m 123 323 l 89 280 l 54 323 l 89 365 z m 207 77 q 179 35 150 13 q 121 -10 97 -10 q 71 -10 64 4 q 57 19 57 54 l 57 143 q 42 104 13 68 l -2 80 q 43 143 57 202 l 106 228 l 106 73 q 106 44 109 35 q 111 26 122 26 q 144 26 193 90 z"},"y":{"x_min":0,"x_max":344,"ha":344,"o":"m 370 86 q 318 0 271 -7 l 271 -162 q 271 -220 235 -259 q 199 -298 146 -298 q 116 -298 86 -282 q 56 -267 40 -239 l 81 -193 l 88 -199 q 86 -211 86 -218 q 86 -241 106 -259 q 125 -277 154 -277 q 185 -277 202 -253 q 219 -229 219 -187 l 219 86 q 179 29 156 9 q 132 -12 110 -12 q 63 -12 63 39 l 63 154 q 44 111 15 71 l 1 84 q 48 158 63 208 l 115 234 l 115 41 q 115 24 129 24 l 134 24 q 152 24 219 126 l 219 208 l 271 234 l 271 22 q 304 25 354 98 z"},"@":{"x_min":0,"x_max":917,"ha":917,"o":"m 890 70 q 839 -64 726 -141 q 613 -218 476 -218 q 292 -218 174 -97 q 55 24 55 216 q 55 344 115 452 q 175 561 281 622 q 387 684 512 684 q 665 684 759 593 q 853 502 853 354 q 853 215 775 113 q 698 10 597 10 q 522 10 522 73 q 522 93 539 166 q 462 73 422 43 q 382 14 343 14 q 304 14 279 42 q 254 70 254 121 q 254 193 297 273 q 341 353 405 406 q 469 458 520 458 q 549 458 569 443 q 589 428 603 376 l 622 446 l 675 453 l 609 232 q 573 113 573 78 q 573 56 588 43 q 602 31 624 31 q 695 31 766 127 q 837 224 837 352 q 837 494 747 581 q 657 668 512 668 q 394 668 293 606 q 193 544 139 428 q 85 312 85 190 q 85 24 195 -89 q 305 -202 477 -202 q 607 -202 717 -128 q 826 -55 874 70 z m 378 55 q 420 55 471 104 q 521 152 556 226 q 590 300 590 364 q 590 400 570 423 q 551 446 518 446 q 474 446 426 396 q 377 346 345 268 q 312 191 312 131 q 312 96 330 76 q 348 55 378 55 z"},".":{"x_min":0,"x_max":188,"ha":188,"o":"m 141 23 l 97 -24 l 53 21 l 97 70 z"},"p":{"x_min":0,"x_max":344,"ha":344,"o":"m 110 176 q 160 226 207 226 q 245 226 267 200 q 289 173 289 130 q 289 74 253 33 q 216 -9 170 -9 q 136 -9 110 11 l 110 -177 q 110 -235 78 -268 q 45 -301 -1 -301 q -50 -301 -77 -259 l -37 -219 l -29 -226 q -32 -235 -32 -240 q -32 -258 -20 -272 q -8 -285 10 -285 q 58 -285 58 -188 l 58 145 q 41 104 12 68 l -2 80 q 38 135 58 204 l 110 230 z m 110 36 q 135 12 169 12 q 201 12 223 40 q 245 67 245 108 q 245 143 226 164 q 207 185 177 185 q 138 185 110 144 z m 363 77 q 309 -8 220 -18 l 216 -7 q 294 11 348 89 z"},"X":{"x_min":0,"x_max":646,"ha":646,"o":"m 681 586 q 676 562 650 539 q 622 571 591 571 q 542 571 498 497 q 454 423 446 318 q 455 316 462 316 q 478 316 500 326 l 500 317 q 500 292 489 282 q 478 271 445 271 q 452 154 486 93 q 520 32 564 32 q 590 32 610 46 q 630 61 658 101 l 674 89 q 609 -12 539 -12 q 479 -12 448 44 q 417 101 406 236 q 373 105 309 46 q 245 -13 172 -13 q 140 -13 116 0 q 92 12 86 33 q 98 58 125 89 l 131 85 q 132 57 155 40 q 177 23 206 23 q 266 23 317 95 q 369 167 381 272 l 358 273 q 337 273 328 258 q 326 272 326 282 q 326 320 383 320 l 389 320 l 389 338 q 389 460 345 536 q 301 612 230 612 q 174 612 136 569 q 98 526 98 464 q 98 412 126 381 q 155 349 192 349 q 222 349 245 373 q 269 397 269 426 q 269 445 258 458 q 247 471 230 471 q 213 471 198 450 l 190 456 l 189 462 q 189 485 201 499 q 213 512 234 512 q 261 512 276 491 q 292 471 292 436 q 292 383 257 344 q 222 305 174 305 q 127 305 98 340 q 68 375 68 433 q 68 521 124 587 q 180 653 259 653 q 333 653 380 583 q 426 513 429 384 q 503 612 622 612 q 662 612 681 586 z"},"*":{"x_min":0,"x_max":365,"ha":365,"o":"m 301 414 q 297 383 273 365 q 232 406 200 429 l 189 422 q 188 405 207 328 q 192 323 178 323 q 164 323 150 328 q 167 388 168 423 l 161 428 q 133 407 92 364 q 63 381 60 411 q 98 420 152 444 l 155 456 q 107 479 62 490 q 62 524 90 539 q 124 501 163 473 l 171 479 q 167 514 151 574 q 165 580 180 580 q 196 580 207 574 q 195 527 191 479 l 202 470 q 263 524 272 536 q 297 522 301 490 q 253 478 211 453 l 211 446 q 271 420 301 414 z"},"Y":{"x_min":0,"x_max":698,"ha":698,"o":"m 615 458 q 601 437 601 376 q 601 325 616 221 q 632 117 632 59 q 632 -95 556 -194 q 479 -293 379 -293 q 323 -293 287 -261 q 251 -229 251 -180 q 251 -136 280 -107 q 310 -77 351 -77 q 383 -77 405 -96 q 426 -115 426 -141 q 426 -162 412 -179 q 397 -196 373 -199 l 365 -189 q 386 -173 386 -153 q 386 -136 372 -124 q 358 -113 339 -113 q 312 -113 293 -134 q 274 -155 274 -185 q 274 -222 305 -247 q 337 -272 382 -272 q 464 -272 522 -196 q 581 -119 581 11 q 581 74 561 207 q 482 21 383 21 q 340 21 313 52 q 285 82 285 132 q 285 161 293 198 q 302 234 334 313 q 366 392 375 429 q 383 467 383 496 q 383 554 347 588 q 312 622 254 622 q 189 622 144 575 q 98 529 98 464 q 98 416 124 386 q 149 356 191 356 q 227 356 250 378 q 273 400 273 431 q 273 450 261 463 q 250 477 234 477 q 212 477 200 453 l 192 457 l 192 459 q 192 484 207 499 q 222 513 244 513 q 266 513 279 493 q 293 473 293 441 q 293 390 259 353 q 224 315 175 315 q 127 315 97 349 q 68 382 68 438 q 68 523 129 586 q 189 649 277 649 q 348 649 391 603 q 434 558 434 481 q 434 429 410 367 l 372 253 q 336 146 336 116 q 336 85 352 67 q 368 48 392 48 q 412 48 430 56 q 448 65 464 82 q 481 99 497 123 q 512 148 535 197 q 558 246 558 253 l 557 312 q 557 335 558 355 q 559 374 562 393 q 564 411 569 428 q 571 437 586 446 q 601 456 615 458 z"},"c":{"x_min":0,"x_max":250,"ha":250,"o":"m 270 77 q 215 -10 129 -10 q 87 -10 61 18 q 35 45 35 95 l 36 99 l 14 69 l -2 80 q 70 187 101 206 q 132 226 163 226 q 214 226 237 191 q 230 164 205 152 q 184 205 142 205 q 118 205 98 183 q 78 160 78 125 q 78 84 102 55 q 125 26 161 26 q 211 26 254 89 z"},"!":{"x_min":0,"x_max":281,"ha":281,"o":"m 189 568 q 166 498 163 391 l 156 105 l 134 105 l 126 385 q 123 479 99 567 q 124 577 147 577 q 165 577 189 568 z m 188 20 l 146 -28 l 105 20 l 145 71 z"},"/":{"x_min":0,"x_max":490,"ha":490,"o":"m 432 642 l 92 -72 l 58 -72 l 398 642 z"},"[":{"x_min":0,"x_max":188,"ha":188,"o":"m 160 -62 l 41 -62 l 41 642 l 160 642 l 160 619 l 83 619 l 83 -38 l 160 -38 z"},"6":{"x_min":0,"x_max":365,"ha":365,"o":"m 125 157 q 110 178 110 203 q 110 243 141 270 q 172 298 217 298 q 267 298 298 261 q 330 225 330 166 q 330 92 286 41 q 242 -11 179 -11 q 115 -11 73 41 q 32 93 32 180 q 32 298 97 382 q 162 467 247 467 q 275 467 291 457 q 307 446 307 429 q 307 413 294 400 q 280 387 263 387 q 259 387 251 389 l 250 395 q 267 405 267 421 q 267 446 230 446 q 170 446 123 377 q 76 308 76 215 q 76 131 111 78 q 146 25 203 25 q 247 25 273 56 q 300 87 300 138 q 300 188 271 221 q 241 254 200 254 q 170 254 150 234 q 130 215 130 187 q 130 170 134 164 z"},"r":{"x_min":0,"x_max":240,"ha":240,"o":"m 259 77 q 204 -10 148 -10 q 91 -10 91 55 q 91 108 141 170 q 132 168 110 168 q 95 168 79 174 q 54 120 13 68 l -2 80 q 44 146 78 231 q 125 209 152 209 q 177 209 196 229 l 204 223 q 174 186 156 148 q 138 110 138 65 q 138 51 147 38 q 157 26 168 26 q 187 26 204 41 q 221 56 244 89 z"},"2":{"x_min":0,"x_max":365,"ha":365,"o":"m 338 101 q 328 47 289 16 q 250 -15 209 -15 q 167 -15 135 13 q 116 30 97 30 q 60 30 52 -13 l 38 -13 q 41 59 89 116 q 138 173 180 201 q 223 229 241 262 q 260 295 260 327 q 260 371 231 405 q 202 439 159 439 q 118 439 91 413 q 63 387 63 346 q 63 317 78 299 q 93 281 115 281 q 135 281 148 294 q 161 307 161 324 l 161 333 l 172 337 q 179 324 179 306 q 179 276 159 258 q 140 240 108 240 q 75 240 54 264 q 33 288 33 326 q 33 385 77 425 q 120 466 184 466 q 239 466 279 430 q 318 395 318 345 q 318 263 206 189 q 93 116 72 45 q 98 65 132 65 q 157 65 196 52 q 235 39 247 39 q 272 39 290 53 q 307 67 325 107 z"},"{":{"x_min":0,"x_max":438,"ha":438,"o":"m 373 -192 q 298 -178 256 -129 q 214 -80 214 -9 q 214 9 223 53 q 233 96 233 127 q 233 156 204 184 q 175 213 126 221 l 126 238 q 183 250 208 278 q 234 306 234 339 q 234 356 224 407 q 215 457 215 488 q 215 542 257 591 q 299 640 373 653 l 373 635 q 326 627 300 598 q 273 569 273 531 q 273 508 282 457 q 292 406 292 384 q 292 337 259 297 q 227 256 163 231 q 225 206 258 165 q 291 124 291 83 q 291 49 281 0 q 272 -47 272 -64 q 272 -152 373 -176 z"},"9":{"x_min":0,"x_max":365,"ha":365,"o":"m 245 279 l 246 264 q 246 221 218 191 q 189 161 147 161 q 101 161 68 200 q 35 238 35 297 q 35 369 81 419 q 127 469 186 469 q 246 469 288 413 q 330 357 330 271 q 330 160 265 74 q 200 -12 119 -12 q 88 -12 69 2 q 50 16 50 37 q 50 76 96 78 l 99 71 q 90 69 90 54 q 90 37 103 26 q 116 15 136 15 q 195 15 242 83 q 290 152 290 246 q 290 326 251 377 q 212 428 157 428 q 115 428 90 400 q 65 373 65 326 q 65 274 96 238 q 126 202 164 202 q 191 202 210 223 q 230 243 232 279 z"}," ":{"x_min":0,"x_max":250,"ha":250,"o":""},"I":{"x_min":0,"x_max":521,"ha":521,"o":"m 389 483 q 416 494 432 494 q 458 494 475 477 q 491 459 491 432 q 491 367 423 317 q 451 256 451 202 q 451 117 385 53 q 320 -10 222 -10 q 147 -10 97 27 q 48 63 34 131 q 60 150 106 155 l 109 146 q 102 135 102 117 q 102 73 141 42 q 180 11 235 11 q 303 11 350 59 q 397 106 397 174 q 397 223 362 290 q 342 287 318 287 q 242 287 196 328 q 149 369 149 434 q 149 521 234 586 q 318 650 468 650 l 472 638 q 417 621 386 583 q 356 544 356 500 q 356 441 413 336 q 457 367 457 413 q 457 439 443 456 q 428 473 412 473 q 406 473 391 470 z m 417 630 q 313 618 260 571 q 207 524 207 448 q 207 385 241 347 q 275 308 331 308 l 350 309 q 312 398 312 454 q 312 560 417 630 z"},"H":{"x_min":0,"x_max":802,"ha":802,"o":"m 830 89 q 765 -15 680 -15 q 610 -15 568 51 q 527 117 527 236 q 527 270 531 332 q 518 329 501 329 q 490 329 478 333 q 465 338 458 338 q 455 338 445 336 q 454 292 454 236 q 454 129 393 58 q 331 -13 235 -13 q 117 -13 71 81 l 123 127 l 130 122 q 156 8 252 8 q 317 8 357 55 q 396 102 396 181 q 396 200 390 258 q 384 317 384 360 q 384 486 425 565 q 419 563 396 552 q 374 542 356 542 q 318 542 279 579 q 241 615 209 615 q 173 615 142 581 q 111 546 111 502 q 111 464 134 440 q 157 415 190 415 q 214 415 236 429 q 257 444 268 470 l 281 466 q 269 421 237 396 q 205 371 171 371 q 133 371 107 400 q 81 428 81 470 q 81 539 129 595 q 177 651 239 651 q 290 651 333 606 q 365 574 392 574 q 418 574 440 599 l 481 645 l 496 635 q 428 569 428 458 q 428 409 441 359 q 463 373 482 373 q 503 373 537 356 q 562 493 625 571 q 688 649 759 649 q 803 649 824 621 l 775 571 q 753 617 723 617 q 675 617 628 533 q 581 450 581 301 q 581 176 618 101 q 654 26 708 26 q 767 26 815 101 z"},"4":{"x_min":0,"x_max":365,"ha":365,"o":"m 351 184 q 333 115 256 95 l 256 1 l 204 -27 l 204 99 q 124 123 93 123 q 44 123 13 92 l 5 99 q 118 267 168 442 q 202 459 252 491 l 255 484 q 218 397 169 321 l 60 151 q 87 159 122 159 q 159 159 204 147 l 204 352 l 256 379 l 256 137 q 312 137 340 189 z"},"~":{"x_min":0,"x_max":667,"ha":667,"o":"m 594 379 q 593 323 560 289 q 528 256 484 256 q 445 256 330 302 q 215 349 183 349 q 110 349 90 258 l 72 258 q 75 318 107 349 q 138 381 176 381 q 196 381 226 373 q 255 365 328 334 q 401 304 432 296 q 462 288 482 288 q 565 288 576 379 z"},"D":{"x_min":0,"x_max":698,"ha":698,"o":"m 275 398 q 268 335 237 302 q 205 269 159 269 q 114 269 85 303 q 56 338 56 389 q 56 492 141 568 q 226 645 354 645 q 492 645 578 556 q 664 467 664 324 q 664 184 583 86 q 503 -11 403 -11 q 369 -11 325 16 q 281 44 249 44 q 208 44 170 -11 l 158 -4 q 177 43 237 86 q 297 128 317 163 q 337 197 337 254 q 337 282 332 331 q 327 380 327 402 q 327 462 350 500 q 373 538 424 560 l 430 549 q 378 512 378 446 q 378 424 386 369 q 395 314 395 284 q 395 223 364 176 q 333 130 255 80 l 279 81 q 334 81 376 55 q 418 30 455 30 q 517 30 567 103 q 617 175 617 282 q 617 422 529 518 q 441 613 315 613 q 218 613 154 556 q 90 499 90 418 q 90 374 114 346 q 139 318 176 318 q 239 318 262 401 z"},"^":{"x_min":0,"x_max":562,"ha":562,"o":"m 497 323 l 463 323 l 282 633 l 99 323 l 65 323 l 274 674 l 291 674 z"},"0":{"x_min":0,"x_max":365,"ha":365,"o":"m 136 336 q 135 343 135 357 q 135 394 157 418 q 180 442 215 442 q 269 442 305 387 q 341 333 341 241 q 341 128 293 59 q 246 -10 176 -10 q 108 -10 65 54 q 21 119 21 217 q 21 398 171 473 l 178 461 q 65 387 65 246 q 65 153 107 89 q 148 26 203 26 q 250 26 281 76 q 311 125 311 207 q 311 292 277 345 q 244 398 199 398 q 177 398 164 383 q 151 369 151 344 l 151 339 z"},"F":{"x_min":0,"x_max":552,"ha":552,"o":"m 566 612 q 525 576 467 576 q 444 576 435 578 q 395 547 395 484 q 395 433 418 386 q 471 417 506 417 q 518 417 535 411 l 536 399 q 536 392 529 350 q 527 350 522 349 q 518 347 517 347 l 515 347 q 512 362 500 372 q 487 381 474 381 q 449 381 426 363 q 449 295 453 272 q 457 248 457 226 q 457 123 385 53 q 312 -17 206 -17 q 133 -17 90 22 q 47 61 47 122 q 47 192 102 241 q 157 291 230 291 q 268 291 293 270 q 319 248 319 217 q 319 177 282 146 q 246 114 193 114 l 182 114 l 182 125 q 268 140 268 201 q 268 229 249 247 q 229 264 198 264 q 151 264 119 231 q 87 198 87 147 q 87 87 129 49 q 171 10 235 10 q 306 10 360 57 q 413 104 413 172 q 413 206 395 258 l 374 319 q 353 303 341 272 l 325 284 q 344 316 367 344 q 351 410 351 442 q 351 526 416 581 q 344 597 285 597 q 227 597 190 565 q 153 534 153 487 q 153 457 171 438 q 189 419 211 419 q 228 419 243 431 q 258 443 263 464 l 273 464 l 274 450 q 274 418 253 394 q 232 370 201 370 q 167 370 143 397 q 119 423 119 465 q 119 537 184 588 q 248 638 347 638 q 394 638 453 625 q 513 612 525 612 q 544 612 559 626 z"},"`":{"x_min":0,"x_max":333,"ha":333,"o":"m 228 278 l 206 278 l 114 385 l 211 385 z"},"k":{"x_min":0,"x_max":375,"ha":375,"o":"m 398 83 q 340 -10 276 -10 q 244 -10 220 13 q 196 35 152 105 l 127 74 l 127 8 l 78 -17 l 78 162 l 15 71 l 1 84 q 78 204 78 210 l 78 431 q 78 490 118 535 q 158 579 206 579 q 261 579 261 524 q 261 481 227 405 q 193 329 127 232 l 127 104 q 184 175 216 199 q 248 224 277 224 q 298 224 314 208 q 329 192 329 182 q 329 167 295 148 q 278 188 254 188 q 227 188 187 143 q 225 84 249 55 q 272 26 304 26 q 333 26 383 95 z m 127 270 q 175 346 199 409 q 224 473 224 512 q 224 531 215 545 q 205 558 189 558 q 163 558 145 528 q 127 497 127 455 z"},"u":{"x_min":0,"x_max":344,"ha":344,"o":"m 364 77 q 305 -10 251 -10 q 233 -10 223 2 q 214 14 214 54 l 214 95 q 161 18 140 2 q 118 -14 99 -14 q 79 -14 68 0 q 57 13 57 63 l 57 143 q 36 96 14 69 l -2 80 q 42 143 57 206 l 106 231 l 106 54 q 106 35 108 29 q 110 22 120 22 q 131 22 148 39 q 166 55 190 92 q 214 128 214 132 l 214 206 l 263 231 l 263 78 q 263 48 265 37 q 268 26 278 26 q 302 26 349 90 z"},"]":{"x_min":0,"x_max":188,"ha":188,"o":"m 148 -62 l 28 -62 l 28 -38 l 106 -38 l 106 619 l 28 619 l 28 642 l 148 642 z"},"U":{"x_min":0,"x_max":740,"ha":740,"o":"m 767 89 q 705 -9 625 -9 q 579 -9 553 31 q 527 70 514 159 q 447 -12 371 -12 q 335 -12 310 20 q 285 51 285 100 q 285 132 294 175 q 303 218 334 305 q 367 392 374 428 q 382 464 382 490 q 382 552 347 589 q 313 625 255 625 q 189 625 145 576 q 100 526 100 459 q 100 411 128 380 q 155 349 194 349 q 227 349 253 373 q 279 396 279 427 q 279 448 267 462 q 255 476 237 476 q 211 476 203 445 l 194 447 q 193 453 193 462 q 193 485 207 501 q 221 517 243 517 q 267 517 283 495 q 299 474 299 443 q 299 388 262 348 q 226 308 174 308 q 128 308 97 342 q 66 376 66 430 q 66 518 129 585 q 191 652 274 652 q 347 652 393 603 q 440 555 440 475 q 440 446 432 408 q 424 371 392 286 q 360 202 351 162 q 343 122 343 91 q 343 60 356 42 q 369 24 387 24 q 410 24 436 56 q 463 88 486 142 q 508 195 512 211 q 515 226 521 266 q 541 418 592 505 q 643 592 694 592 q 709 592 721 581 q 734 569 734 560 q 734 552 700 517 q 681 551 664 551 q 629 551 597 466 q 565 382 565 254 q 565 146 589 86 q 613 27 654 27 q 680 27 701 43 q 723 60 752 101 z"},"o":{"x_min":0,"x_max":313,"ha":313,"o":"m -3 80 q 61 170 101 197 q 142 223 186 223 q 229 223 253 201 q 277 178 277 138 q 277 81 231 34 q 185 -13 124 -13 q 84 -13 61 10 q 37 34 37 71 q 37 90 40 106 q 33 98 13 68 z m 156 19 q 193 19 215 46 q 237 73 237 117 q 237 156 216 177 q 196 199 162 199 q 126 199 105 173 q 84 147 84 101 q 84 19 156 19 z m 332 77 q 293 21 258 4 q 224 -14 189 -18 l 185 -7 q 266 11 316 89 z"},"N":{"x_min":0,"x_max":875,"ha":875,"o":"m 903 89 q 871 39 834 15 q 798 -9 746 -9 q 685 -9 646 39 q 608 86 608 161 q 608 312 746 533 q 706 513 684 513 q 653 513 618 538 l 543 432 q 547 407 547 364 q 547 202 466 96 q 385 -10 268 -10 q 178 -10 128 62 l 181 107 l 187 102 q 205 17 293 17 q 377 17 440 104 q 503 192 503 324 q 503 447 440 526 q 377 605 292 605 q 213 605 156 542 q 98 479 98 393 q 98 336 130 301 q 161 266 209 266 q 253 266 290 303 q 327 341 327 390 q 327 417 313 435 q 299 452 280 452 q 253 452 238 416 l 225 417 l 225 426 q 225 459 241 478 q 257 496 284 496 q 312 496 331 469 q 350 443 350 402 q 350 330 299 276 q 249 222 180 222 q 125 222 91 260 q 58 298 58 363 q 58 471 142 558 q 225 646 328 646 q 484 646 537 460 l 646 615 q 675 554 723 554 q 761 554 797 600 l 809 591 q 732 481 699 390 q 666 298 666 200 q 666 117 697 70 q 727 23 775 23 q 808 23 833 41 q 858 59 888 101 z"},"+":{"x_min":0,"x_max":615,"ha":615,"o":"m 550 213 l 322 213 l 322 -11 l 290 -11 l 290 213 l 64 213 l 64 246 l 290 246 l 290 473 l 322 473 l 322 246 l 550 246 z"},"G":{"x_min":0,"x_max":521,"ha":521,"o":"m 471 379 q 427 355 427 317 q 427 299 440 255 q 453 212 453 182 q 453 100 392 44 q 331 -11 236 -11 q 89 -11 53 115 q 76 132 120 143 l 123 134 q 121 125 121 112 q 121 67 156 39 q 192 10 245 10 q 309 10 352 52 q 395 95 395 158 q 395 178 389 216 q 383 255 383 270 q 383 294 393 318 q 304 239 221 239 q 154 239 114 279 q 74 320 74 387 q 74 488 156 571 q 239 653 345 653 q 397 653 429 627 q 460 602 460 558 q 460 500 417 455 q 375 411 321 411 q 292 411 274 427 q 257 442 257 468 q 257 527 327 559 l 334 549 q 301 521 301 488 q 301 465 313 452 q 326 438 347 438 q 376 438 401 464 q 426 491 426 527 q 426 570 394 598 q 363 626 313 626 q 238 626 185 563 q 132 500 132 413 q 132 349 163 312 q 195 275 246 275 q 278 275 312 287 q 346 299 393 342 q 440 385 463 392 z"},"q":{"x_min":0,"x_max":344,"ha":344,"o":"m 370 86 q 319 2 273 -6 l 273 -225 l 224 -225 l 224 49 q 181 -9 128 -9 q 88 -9 65 21 q 42 50 42 97 l 42 106 q 31 94 14 69 l -2 80 q 45 150 82 190 q 118 230 168 230 q 200 230 225 211 l 273 236 l 273 22 q 305 26 355 98 z m 224 81 l 224 186 q 198 209 168 209 q 133 209 111 182 q 89 154 89 114 q 89 77 106 56 q 124 35 151 35 q 197 35 224 81 z"},"d":{"x_min":0,"x_max":302,"ha":302,"o":"m 66 390 q 66 420 83 437 q 101 454 129 454 q 189 454 236 393 q 282 332 282 237 q 282 132 232 61 q 182 -10 117 -10 q 81 -10 59 12 q 36 35 36 66 l 36 83 q 36 97 37 101 l 14 69 l -2 80 q 94 229 179 229 q 225 229 249 191 q 252 212 252 232 q 252 297 211 351 q 171 405 117 405 q 90 405 66 390 z m 143 26 q 180 26 210 63 q 240 101 240 145 q 240 174 223 191 q 207 208 178 208 q 141 208 112 173 q 83 139 83 97 q 83 65 100 46 q 116 26 143 26 z m 322 77 q 268 -8 179 -18 l 175 -7 q 254 11 306 89 z"},"1":{"x_min":0,"x_max":365,"ha":365,"o":"m 211 8 l 159 -20 l 159 378 q 119 350 71 339 l 61 357 q 161 387 204 480 l 211 475 z"},"5":{"x_min":0,"x_max":365,"ha":365,"o":"m 95 261 q 147 304 204 304 q 257 304 292 267 q 326 230 326 176 q 326 103 276 47 q 225 -9 153 -9 q 100 -9 65 21 q 30 50 30 91 q 30 123 51 146 q 72 168 105 168 q 146 168 176 119 l 164 111 q 145 132 122 132 q 100 132 85 116 q 70 101 70 77 q 70 50 95 31 q 120 12 157 12 q 208 12 241 50 q 275 88 275 147 q 275 199 247 233 q 219 268 178 268 q 128 268 85 222 l 69 228 q 84 308 84 388 l 82 467 l 94 478 q 140 422 202 422 q 260 422 295 477 l 311 469 q 265 381 174 381 q 136 381 106 396 q 105 356 95 261 z"}}}
